<svg xmlns="http://www.w3.org/2000/svg" viewBox="0 0 360 120" width="360" height="120">
  <defs>
    <linearGradient id="grad" x1="0%" y1="0%" x2="100%" y2="100%">
      <stop offset="0%" style="stop-color:#6C63FF" />
      <stop offset="100%" style="stop-color:#00D4AA" />
    </linearGradient>
    <linearGradient id="gradFade" x1="0%" y1="0%" x2="100%" y2="100%">
      <stop offset="0%" style="stop-color:#6C63FF;stop-opacity:0.6" />
      <stop offset="100%" style="stop-color:#00D4AA;stop-opacity:0.6" />
    </linearGradient>
  </defs>
  <g transform="translate(20, 15)">
    <line x1="12" y1="10" x2="12" y2="80" stroke="url(#grad)" stroke-width="4" stroke-linecap="round"/>
    <line x1="12" y1="45" x2="52" y2="10" stroke="url(#grad)" stroke-width="4" stroke-linecap="round"/>
    <line x1="12" y1="45" x2="52" y2="80" stroke="url(#grad)" stroke-width="4" stroke-linecap="round"/>
    <line x1="52" y1="10" x2="70" y2="18" stroke="url(#gradFade)" stroke-width="1.5" stroke-dasharray="3,3"/>
    <line x1="52" y1="80" x2="70" y2="72" stroke="url(#gradFade)" stroke-width="1.5" stroke-dasharray="3,3"/>
    <line x1="12" y1="10" x2="28" y2="4" stroke="url(#gradFade)" stroke-width="1.5" stroke-dasharray="3,3"/>
    <circle cx="12" cy="10" r="5" fill="url(#grad)"/>
    <circle cx="12" cy="45" r="6" fill="url(#grad)"/>
    <circle cx="12" cy="80" r="5" fill="url(#grad)"/>
    <circle cx="52" cy="10" r="5" fill="url(#grad)"/>
    <circle cx="52" cy="80" r="5" fill="url(#grad)"/>
    <circle cx="70" cy="18" r="3" fill="#00D4AA" opacity="0.8"/>
    <circle cx="70" cy="72" r="3" fill="#6C63FF" opacity="0.8"/>
    <circle cx="28" cy="4" r="2.5" fill="#00D4AA" opacity="0.6"/>
  </g>
  <text x="108" y="74" font-family="'Inter','Helvetica Neue',Arial,sans-serif" font-size="52" font-weight="700" fill="#FFFFFF" letter-spacing="-1">Nomii<tspan font-weight="300" fill="url(#grad)">AI</tspan></text>
</svg>